<svg xmlns="http://www.w3.org/2000/svg" xmlns:xlink="http://www.w3.org/1999/xlink" width="500" zoomAndPan="magnify" viewBox="0 0 375 374.999991" height="500" preserveAspectRatio="xMidYMid meet" version="1.0"><defs><g/><clipPath id="ba4a673807"><path d="M 165 65.46875 L 210 65.46875 L 210 110 L 165 110 Z M 165 65.46875 " clip-rule="nonzero"/></clipPath><clipPath id="0bc85b9a1f"><path d="M 146 115 L 229 115 L 229 159.96875 L 146 159.96875 Z M 146 115 " clip-rule="nonzero"/></clipPath><clipPath id="e2b0bbb642"><path d="M 115.132812 128 L 150 128 L 150 159.96875 L 115.132812 159.96875 Z M 115.132812 128 " clip-rule="nonzero"/></clipPath><clipPath id="ebd0f9884c"><path d="M 225 128 L 259.882812 128 L 259.882812 159.96875 L 225 159.96875 Z M 225 128 " clip-rule="nonzero"/></clipPath><clipPath id="dab3bd82c3"><path d="M 107.109375 37.5 L 275.109375 37.5 L 275.109375 159.75 L 107.109375 159.75 Z M 107.109375 37.5 " clip-rule="nonzero"/></clipPath><clipPath id="6227576f36"><path d="M 137.824219 195.839844 L 244.179688 195.839844 L 244.179688 274.53125 L 137.824219 274.53125 Z M 137.824219 195.839844 " clip-rule="nonzero"/></clipPath><clipPath id="8d4603c0fe"><path d="M 191.03125 274.53125 L 137.882812 195.839844 L 244.179688 195.839844 Z M 191.03125 274.53125 " clip-rule="nonzero"/></clipPath></defs><g clip-path="url(#ba4a673807)"><path fill="#43aabc" d="M 209.488281 87.460938 C 209.488281 88.179688 209.453125 88.898438 209.382812 89.617188 C 209.3125 90.332031 209.207031 91.042969 209.066406 91.75 C 208.925781 92.457031 208.75 93.15625 208.539062 93.84375 C 208.332031 94.535156 208.089844 95.210938 207.8125 95.875 C 207.539062 96.542969 207.230469 97.191406 206.890625 97.828125 C 206.550781 98.460938 206.179688 99.078125 205.78125 99.679688 C 205.382812 100.277344 204.953125 100.855469 204.496094 101.410156 C 204.039062 101.96875 203.554688 102.5 203.046875 103.011719 C 202.535156 103.519531 202.003906 104.003906 201.445312 104.460938 C 200.890625 104.917969 200.3125 105.347656 199.714844 105.746094 C 199.113281 106.144531 198.496094 106.515625 197.863281 106.855469 C 197.226562 107.195312 196.578125 107.503906 195.910156 107.777344 C 195.246094 108.054688 194.570312 108.296875 193.878906 108.503906 C 193.191406 108.714844 192.492188 108.890625 191.785156 109.03125 C 191.078125 109.171875 190.367188 109.277344 189.652344 109.347656 C 188.933594 109.417969 188.214844 109.453125 187.496094 109.453125 C 186.773438 109.453125 186.054688 109.417969 185.339844 109.347656 C 184.621094 109.277344 183.910156 109.171875 183.203125 109.03125 C 182.5 108.890625 181.800781 108.714844 181.109375 108.503906 C 180.421875 108.296875 179.746094 108.054688 179.078125 107.777344 C 178.414062 107.503906 177.761719 107.195312 177.128906 106.855469 C 176.492188 106.515625 175.875 106.144531 175.277344 105.746094 C 174.679688 105.347656 174.101562 104.917969 173.542969 104.460938 C 172.988281 104.003906 172.453125 103.519531 171.945312 103.011719 C 171.433594 102.5 170.953125 101.96875 170.496094 101.410156 C 170.039062 100.855469 169.609375 100.277344 169.210938 99.679688 C 168.808594 99.078125 168.4375 98.460938 168.097656 97.828125 C 167.761719 97.191406 167.453125 96.542969 167.175781 95.875 C 166.902344 95.210938 166.660156 94.535156 166.449219 93.84375 C 166.242188 93.15625 166.066406 92.457031 165.925781 91.75 C 165.785156 91.042969 165.679688 90.332031 165.609375 89.617188 C 165.539062 88.898438 165.503906 88.179688 165.503906 87.460938 C 165.503906 86.738281 165.539062 86.019531 165.609375 85.304688 C 165.679688 84.585938 165.785156 83.875 165.925781 83.167969 C 166.066406 82.464844 166.242188 81.765625 166.449219 81.074219 C 166.660156 80.386719 166.902344 79.710938 167.175781 79.042969 C 167.453125 78.378906 167.761719 77.726562 168.097656 77.09375 C 168.4375 76.457031 168.808594 75.839844 169.210938 75.242188 C 169.609375 74.644531 170.039062 74.066406 170.496094 73.507812 C 170.953125 72.953125 171.433594 72.417969 171.945312 71.910156 C 172.453125 71.398438 172.988281 70.917969 173.542969 70.460938 C 174.101562 70.003906 174.679688 69.574219 175.277344 69.171875 C 175.875 68.773438 176.492188 68.402344 177.128906 68.0625 C 177.761719 67.726562 178.414062 67.417969 179.078125 67.140625 C 179.746094 66.867188 180.421875 66.625 181.109375 66.414062 C 181.800781 66.207031 182.5 66.03125 183.203125 65.890625 C 183.910156 65.75 184.621094 65.644531 185.339844 65.574219 C 186.054688 65.503906 186.773438 65.46875 187.496094 65.46875 C 188.214844 65.46875 188.933594 65.503906 189.652344 65.574219 C 190.367188 65.644531 191.078125 65.75 191.785156 65.890625 C 192.492188 66.03125 193.191406 66.207031 193.878906 66.414062 C 194.570312 66.625 195.246094 66.867188 195.910156 67.140625 C 196.578125 67.417969 197.226562 67.726562 197.863281 68.0625 C 198.496094 68.402344 199.113281 68.773438 199.714844 69.171875 C 200.3125 69.574219 200.890625 70.003906 201.445312 70.460938 C 202.003906 70.917969 202.535156 71.398438 203.046875 71.910156 C 203.554688 72.417969 204.039062 72.953125 204.496094 73.507812 C 204.953125 74.066406 205.382812 74.644531 205.78125 75.242188 C 206.179688 75.839844 206.550781 76.457031 206.890625 77.09375 C 207.230469 77.726562 207.539062 78.378906 207.8125 79.042969 C 208.089844 79.710938 208.332031 80.386719 208.539062 81.074219 C 208.75 81.765625 208.925781 82.464844 209.066406 83.167969 C 209.207031 83.875 209.3125 84.585938 209.382812 85.304688 C 209.453125 86.019531 209.488281 86.738281 209.488281 87.460938 Z M 209.488281 87.460938 " fill-opacity="1" fill-rule="nonzero"/></g><path fill="#43aabc" d="M 247.1875 106.3125 C 247.1875 107.34375 247.089844 108.363281 246.886719 109.375 C 246.6875 110.386719 246.386719 111.371094 245.992188 112.324219 C 245.597656 113.273438 245.113281 114.179688 244.542969 115.039062 C 243.96875 115.894531 243.316406 116.6875 242.589844 117.417969 C 241.859375 118.148438 241.066406 118.800781 240.207031 119.371094 C 239.351562 119.945312 238.445312 120.429688 237.492188 120.824219 C 236.539062 121.21875 235.558594 121.515625 234.546875 121.71875 C 233.535156 121.917969 232.511719 122.019531 231.480469 122.019531 C 230.449219 122.019531 229.425781 121.917969 228.414062 121.71875 C 227.402344 121.515625 226.421875 121.21875 225.46875 120.824219 C 224.515625 120.429688 223.609375 119.945312 222.753906 119.371094 C 221.894531 118.800781 221.101562 118.148438 220.371094 117.417969 C 219.644531 116.6875 218.992188 115.894531 218.417969 115.039062 C 217.847656 114.179688 217.363281 113.273438 216.96875 112.324219 C 216.574219 111.371094 216.273438 110.386719 216.074219 109.375 C 215.871094 108.363281 215.769531 107.34375 215.769531 106.3125 C 215.769531 105.277344 215.871094 104.257812 216.074219 103.246094 C 216.273438 102.234375 216.574219 101.253906 216.96875 100.300781 C 217.363281 99.347656 217.847656 98.441406 218.417969 97.582031 C 218.992188 96.726562 219.644531 95.933594 220.371094 95.203125 C 221.101562 94.472656 221.894531 93.820312 222.753906 93.25 C 223.609375 92.675781 224.515625 92.191406 225.46875 91.796875 C 226.421875 91.402344 227.402344 91.105469 228.414062 90.902344 C 229.425781 90.703125 230.449219 90.601562 231.480469 90.601562 C 232.511719 90.601562 233.535156 90.703125 234.546875 90.902344 C 235.558594 91.105469 236.539062 91.402344 237.492188 91.796875 C 238.445312 92.191406 239.351562 92.675781 240.207031 93.25 C 241.066406 93.820312 241.859375 94.472656 242.589844 95.203125 C 243.316406 95.933594 243.96875 96.726562 244.542969 97.582031 C 245.113281 98.441406 245.597656 99.347656 245.992188 100.300781 C 246.386719 101.253906 246.6875 102.234375 246.886719 103.246094 C 247.089844 104.257812 247.1875 105.277344 247.1875 106.3125 Z M 247.1875 106.3125 " fill-opacity="1" fill-rule="nonzero"/><path fill="#43aabc" d="M 159.664062 106.3125 C 159.664062 107.34375 159.566406 108.363281 159.363281 109.375 C 159.164062 110.386719 158.863281 111.371094 158.46875 112.324219 C 158.074219 113.273438 157.589844 114.179688 157.019531 115.039062 C 156.445312 115.894531 155.792969 116.6875 155.0625 117.417969 C 154.335938 118.148438 153.542969 118.800781 152.683594 119.371094 C 151.824219 119.945312 150.921875 120.429688 149.96875 120.824219 C 149.015625 121.21875 148.03125 121.515625 147.019531 121.71875 C 146.007812 121.917969 144.988281 122.019531 143.957031 122.019531 C 142.925781 122.019531 141.902344 121.917969 140.890625 121.71875 C 139.878906 121.515625 138.898438 121.21875 137.945312 120.824219 C 136.992188 120.429688 136.085938 119.945312 135.230469 119.371094 C 134.371094 118.800781 133.578125 118.148438 132.847656 117.417969 C 132.117188 116.6875 131.46875 115.894531 130.894531 115.039062 C 130.320312 114.179688 129.835938 113.273438 129.441406 112.324219 C 129.046875 111.371094 128.75 110.386719 128.550781 109.375 C 128.347656 108.363281 128.246094 107.34375 128.246094 106.3125 C 128.246094 105.277344 128.347656 104.257812 128.550781 103.246094 C 128.75 102.234375 129.046875 101.253906 129.441406 100.300781 C 129.835938 99.347656 130.320312 98.441406 130.894531 97.582031 C 131.46875 96.726562 132.117188 95.933594 132.847656 95.203125 C 133.578125 94.472656 134.371094 93.820312 135.230469 93.25 C 136.085938 92.675781 136.992188 92.191406 137.945312 91.796875 C 138.898438 91.402344 139.878906 91.105469 140.890625 90.902344 C 141.902344 90.703125 142.925781 90.601562 143.957031 90.601562 C 144.988281 90.601562 146.007812 90.703125 147.019531 90.902344 C 148.03125 91.105469 149.015625 91.402344 149.96875 91.796875 C 150.921875 92.191406 151.824219 92.675781 152.683594 93.25 C 153.542969 93.820312 154.335938 94.472656 155.0625 95.203125 C 155.792969 95.933594 156.445312 96.726562 157.019531 97.582031 C 157.589844 98.441406 158.074219 99.347656 158.46875 100.300781 C 158.863281 101.253906 159.164062 102.234375 159.363281 103.246094 C 159.566406 104.257812 159.664062 105.277344 159.664062 106.3125 Z M 159.664062 106.3125 " fill-opacity="1" fill-rule="nonzero"/><g clip-path="url(#0bc85b9a1f)"><path fill="#43aabc" d="M 187.496094 115.734375 C 164.976562 115.734375 146.652344 134.058594 146.652344 156.578125 C 146.652344 158.3125 148.058594 159.722656 149.792969 159.722656 L 225.195312 159.722656 C 226.929688 159.722656 228.339844 158.3125 228.339844 156.578125 C 228.339844 134.058594 210.015625 115.734375 187.496094 115.734375 Z M 187.496094 115.734375 " fill-opacity="1" fill-rule="nonzero"/></g><g clip-path="url(#e2b0bbb642)"><path fill="#43aabc" d="M 149.371094 128.980469 C 147.449219 128.574219 145.496094 128.304688 143.511719 128.304688 C 127.921875 128.304688 115.234375 140.988281 115.234375 156.578125 C 115.234375 158.3125 116.640625 159.722656 118.375 159.722656 L 140.945312 159.722656 C 140.59375 158.734375 140.367188 157.683594 140.367188 156.578125 C 140.367188 146.269531 143.738281 136.75 149.371094 128.980469 Z M 149.371094 128.980469 " fill-opacity="1" fill-rule="nonzero"/></g><g clip-path="url(#ebd0f9884c)"><path fill="#43aabc" d="M 231.480469 128.304688 C 229.496094 128.304688 227.539062 128.574219 225.617188 128.980469 C 231.253906 136.75 234.621094 146.269531 234.621094 156.578125 C 234.621094 157.683594 234.394531 158.734375 234.042969 159.722656 L 256.613281 159.722656 C 258.347656 159.722656 259.757812 158.3125 259.757812 156.578125 C 259.757812 140.988281 247.070312 128.304688 231.480469 128.304688 Z M 231.480469 128.304688 " fill-opacity="1" fill-rule="nonzero"/></g><g clip-path="url(#dab3bd82c3)"><path fill="#43aabc" d="M 191.105469 37.484375 C 189.730469 37.484375 188.359375 37.519531 186.988281 37.585938 C 185.613281 37.652344 184.246094 37.753906 182.878906 37.890625 C 181.511719 38.023438 180.148438 38.191406 178.792969 38.394531 C 177.433594 38.59375 176.082031 38.828125 174.734375 39.097656 C 173.386719 39.367188 172.046875 39.667969 170.714844 40 C 169.382812 40.332031 168.058594 40.699219 166.746094 41.097656 C 165.433594 41.496094 164.128906 41.929688 162.835938 42.390625 C 161.542969 42.851562 160.261719 43.347656 158.992188 43.871094 C 157.722656 44.398438 156.46875 44.953125 155.226562 45.542969 C 153.988281 46.128906 152.761719 46.746094 151.550781 47.394531 C 150.339844 48.039062 149.144531 48.71875 147.964844 49.421875 C 146.789062 50.128906 145.628906 50.863281 144.488281 51.625 C 143.34375 52.390625 142.222656 53.179688 141.121094 54 C 140.015625 54.816406 138.933594 55.660156 137.871094 56.53125 C 136.8125 57.402344 135.773438 58.300781 134.753906 59.222656 C 133.738281 60.144531 132.742188 61.089844 131.769531 62.0625 C 130.800781 63.03125 129.855469 64.027344 128.929688 65.042969 C 128.007812 66.0625 127.113281 67.101562 126.242188 68.164062 C 125.371094 69.226562 124.527344 70.308594 123.707031 71.410156 C 122.890625 72.511719 122.097656 73.636719 121.335938 74.777344 C 120.574219 75.917969 119.839844 77.078125 119.132812 78.257812 C 118.425781 79.433594 117.75 80.628906 117.101562 81.839844 C 116.457031 83.050781 115.839844 84.277344 115.25 85.519531 C 114.664062 86.761719 114.109375 88.015625 113.582031 89.285156 C 113.054688 90.550781 112.5625 91.832031 112.101562 93.125 C 111.636719 94.417969 111.207031 95.722656 110.808594 97.035156 C 110.410156 98.351562 110.042969 99.675781 109.710938 101.007812 C 109.375 102.339844 109.074219 103.675781 108.808594 105.023438 C 108.539062 106.371094 108.304688 107.722656 108.101562 109.082031 C 107.902344 110.441406 107.734375 111.804688 107.597656 113.167969 C 107.464844 114.535156 107.363281 115.90625 107.296875 117.277344 C 107.230469 118.648438 107.195312 120.019531 107.195312 121.394531 C 107.195312 122.765625 107.230469 124.140625 107.296875 125.511719 C 107.363281 126.882812 107.464844 128.253906 107.597656 129.617188 C 107.734375 130.984375 107.902344 132.347656 108.101562 133.707031 C 108.304688 135.066406 108.539062 136.417969 108.808594 137.765625 C 109.074219 139.109375 109.375 140.449219 109.710938 141.78125 C 110.042969 143.113281 110.410156 144.4375 110.808594 145.75 C 111.207031 147.066406 111.636719 148.371094 112.101562 149.664062 C 112.5625 150.957031 113.058594 152.234375 113.582031 153.503906 C 114.109375 154.773438 114.664062 156.027344 115.25 157.269531 C 115.839844 158.511719 116.457031 159.738281 117.101562 160.949219 C 117.75 162.160156 118.425781 163.355469 119.132812 164.53125 C 119.839844 165.710938 120.574219 166.871094 121.335938 168.011719 C 122.097656 169.152344 122.890625 170.277344 123.707031 171.378906 C 124.527344 172.480469 125.371094 173.5625 126.242188 174.625 C 127.113281 175.6875 128.007812 176.726562 128.933594 177.746094 C 129.855469 178.761719 130.800781 179.757812 131.773438 180.726562 C 132.742188 181.699219 133.738281 182.644531 134.753906 183.566406 C 135.773438 184.488281 136.8125 185.386719 137.871094 186.257812 C 138.933594 187.128906 140.015625 187.972656 141.121094 188.789062 C 142.222656 189.609375 143.34375 190.398438 144.488281 191.164062 C 145.628906 191.925781 146.789062 192.660156 147.964844 193.367188 C 149.144531 194.070312 150.339844 194.75 151.550781 195.394531 C 152.761719 196.042969 153.988281 196.660156 155.226562 197.246094 C 156.46875 197.835938 157.726562 198.390625 158.992188 198.917969 C 160.261719 199.441406 161.542969 199.9375 162.835938 200.398438 C 164.128906 200.859375 165.433594 201.292969 166.746094 201.691406 C 168.0625 202.089844 169.382812 202.453125 170.714844 202.789062 C 172.046875 203.121094 173.386719 203.421875 174.734375 203.691406 C 176.082031 203.957031 177.433594 204.195312 178.792969 204.394531 C 180.152344 204.597656 181.511719 204.765625 182.878906 204.898438 C 184.246094 205.035156 185.613281 205.136719 186.988281 205.203125 C 188.359375 205.269531 189.730469 205.304688 191.105469 205.304688 C 192.476562 205.304688 193.851562 205.269531 195.222656 205.203125 C 196.59375 205.136719 197.960938 205.035156 199.328125 204.898438 C 200.695312 204.765625 202.058594 204.597656 203.417969 204.394531 C 204.773438 204.195312 206.128906 203.957031 207.472656 203.691406 C 208.820312 203.421875 210.160156 203.121094 211.492188 202.789062 C 212.824219 202.453125 214.148438 202.089844 215.460938 201.691406 C 216.777344 201.292969 218.078125 200.859375 219.371094 200.398438 C 220.664062 199.933594 221.945312 199.441406 223.214844 198.914062 C 224.484375 198.390625 225.738281 197.832031 226.980469 197.246094 C 228.222656 196.660156 229.449219 196.042969 230.660156 195.394531 C 231.871094 194.746094 233.0625 194.070312 234.242188 193.363281 C 235.417969 192.660156 236.578125 191.925781 237.722656 191.160156 C 238.863281 190.398438 239.984375 189.609375 241.089844 188.789062 C 242.191406 187.972656 243.273438 187.128906 244.335938 186.257812 C 245.398438 185.386719 246.4375 184.488281 247.453125 183.566406 C 248.472656 182.644531 249.464844 181.699219 250.4375 180.726562 C 251.40625 179.753906 252.355469 178.761719 253.277344 177.742188 C 254.199219 176.726562 255.09375 175.6875 255.964844 174.625 C 256.835938 173.5625 257.683594 172.480469 258.5 171.378906 C 259.320312 170.277344 260.109375 169.152344 260.871094 168.011719 C 261.636719 166.871094 262.371094 165.710938 263.074219 164.53125 C 263.78125 163.355469 264.457031 162.160156 265.105469 160.949219 C 265.753906 159.738281 266.371094 158.511719 266.957031 157.269531 C 267.542969 156.027344 268.101562 154.773438 268.625 153.503906 C 269.152344 152.234375 269.644531 150.957031 270.109375 149.664062 C 270.570312 148.371094 271 147.066406 271.398438 145.75 C 271.796875 144.4375 272.164062 143.113281 272.5 141.78125 C 272.832031 140.449219 273.132812 139.109375 273.402344 137.765625 C 273.667969 136.417969 273.902344 135.066406 274.105469 133.707031 C 274.304688 132.347656 274.472656 130.984375 274.609375 129.617188 C 274.742188 128.253906 274.84375 126.882812 274.910156 125.511719 C 274.980469 124.140625 275.011719 122.765625 275.011719 121.394531 C 275.011719 120.019531 274.980469 118.648438 274.910156 117.277344 C 274.84375 115.90625 274.742188 114.535156 274.609375 113.167969 C 274.472656 111.804688 274.304688 110.441406 274.105469 109.082031 C 273.902344 107.722656 273.667969 106.371094 273.402344 105.023438 C 273.132812 103.675781 272.832031 102.339844 272.5 101.007812 C 272.164062 99.675781 271.796875 98.351562 271.398438 97.035156 C 271 95.722656 270.570312 94.417969 270.109375 93.125 C 269.644531 91.832031 269.152344 90.550781 268.625 89.285156 C 268.101562 88.015625 267.542969 86.761719 266.957031 85.519531 C 266.371094 84.277344 265.753906 83.050781 265.105469 81.839844 C 264.457031 80.628906 263.78125 79.433594 263.074219 78.257812 C 262.367188 77.078125 261.632812 75.917969 260.871094 74.777344 C 260.109375 73.636719 259.316406 72.511719 258.5 71.410156 C 257.683594 70.304688 256.835938 69.222656 255.964844 68.164062 C 255.09375 67.101562 254.199219 66.0625 253.277344 65.042969 C 252.355469 64.027344 251.40625 63.03125 250.4375 62.0625 C 249.464844 61.089844 248.472656 60.144531 247.453125 59.222656 C 246.4375 58.300781 245.394531 57.402344 244.335938 56.53125 C 243.273438 55.660156 242.191406 54.816406 241.089844 53.996094 C 239.984375 53.179688 238.863281 52.390625 237.722656 51.625 C 236.578125 50.863281 235.417969 50.128906 234.242188 49.421875 C 233.0625 48.71875 231.871094 48.039062 230.65625 47.394531 C 229.445312 46.746094 228.222656 46.128906 226.980469 45.542969 C 225.738281 44.953125 224.484375 44.398438 223.214844 43.871094 C 221.945312 43.347656 220.664062 42.851562 219.371094 42.390625 C 218.078125 41.925781 216.773438 41.496094 215.460938 41.097656 C 214.148438 40.699219 212.824219 40.332031 211.492188 40 C 210.160156 39.667969 208.820312 39.367188 207.472656 39.097656 C 206.125 38.828125 204.773438 38.59375 203.414062 38.394531 C 202.058594 38.191406 200.695312 38.023438 199.328125 37.890625 C 197.960938 37.753906 196.59375 37.652344 195.222656 37.585938 C 193.847656 37.519531 192.476562 37.484375 191.105469 37.484375 Z M 191.105469 52.0625 C 192.238281 52.0625 193.371094 52.09375 194.503906 52.148438 C 195.640625 52.203125 196.769531 52.289062 197.898438 52.398438 C 199.027344 52.507812 200.15625 52.648438 201.277344 52.816406 C 202.398438 52.980469 203.515625 53.175781 204.628906 53.398438 C 205.742188 53.617188 206.847656 53.867188 207.949219 54.140625 C 209.050781 54.417969 210.144531 54.722656 211.230469 55.050781 C 212.316406 55.378906 213.390625 55.734375 214.460938 56.117188 C 215.527344 56.5 216.585938 56.90625 217.636719 57.34375 C 218.683594 57.777344 219.71875 58.234375 220.746094 58.722656 C 221.773438 59.207031 222.785156 59.714844 223.785156 60.25 C 224.785156 60.785156 225.773438 61.34375 226.746094 61.929688 C 227.71875 62.511719 228.675781 63.117188 229.621094 63.75 C 230.566406 64.378906 231.492188 65.03125 232.402344 65.707031 C 233.316406 66.382812 234.207031 67.082031 235.085938 67.800781 C 235.960938 68.523438 236.820312 69.261719 237.664062 70.023438 C 238.503906 70.785156 239.324219 71.570312 240.128906 72.371094 C 240.929688 73.171875 241.710938 73.996094 242.472656 74.835938 C 243.234375 75.675781 243.976562 76.535156 244.695312 77.414062 C 245.414062 78.289062 246.113281 79.183594 246.789062 80.09375 C 247.464844 81.007812 248.117188 81.933594 248.75 82.878906 C 249.378906 83.820312 249.984375 84.777344 250.570312 85.753906 C 251.152344 86.726562 251.710938 87.710938 252.246094 88.710938 C 252.78125 89.714844 253.292969 90.726562 253.777344 91.753906 C 254.261719 92.777344 254.722656 93.816406 255.15625 94.863281 C 255.589844 95.910156 256 96.96875 256.378906 98.039062 C 256.761719 99.105469 257.117188 100.183594 257.449219 101.269531 C 257.777344 102.355469 258.078125 103.449219 258.355469 104.546875 C 258.632812 105.648438 258.878906 106.757812 259.101562 107.867188 C 259.324219 108.980469 259.515625 110.097656 259.683594 111.222656 C 259.851562 112.34375 259.988281 113.46875 260.101562 114.597656 C 260.210938 115.726562 260.292969 116.859375 260.351562 117.992188 C 260.40625 119.125 260.433594 120.257812 260.433594 121.394531 C 260.433594 122.527344 260.40625 123.664062 260.351562 124.796875 C 260.292969 125.929688 260.210938 127.0625 260.101562 128.191406 C 259.988281 129.320312 259.851562 130.445312 259.683594 131.566406 C 259.515625 132.6875 259.324219 133.808594 259.101562 134.917969 C 258.878906 136.03125 258.632812 137.140625 258.355469 138.238281 C 258.078125 139.339844 257.777344 140.433594 257.449219 141.519531 C 257.117188 142.605469 256.761719 143.683594 256.378906 144.75 C 256 145.820312 255.589844 146.878906 255.15625 147.925781 C 254.722656 148.972656 254.261719 150.011719 253.777344 151.035156 C 253.292969 152.0625 252.78125 153.074219 252.246094 154.074219 C 251.710938 155.078125 251.152344 156.0625 250.570312 157.035156 C 249.984375 158.007812 249.378906 158.96875 248.75 159.910156 C 248.117188 160.855469 247.464844 161.78125 246.789062 162.695312 C 246.113281 163.605469 245.414062 164.5 244.695312 165.375 C 243.976562 166.253906 243.234375 167.113281 242.472656 167.953125 C 241.710938 168.792969 240.929688 169.613281 240.128906 170.417969 C 239.324219 171.21875 238.503906 172 237.664062 172.765625 C 236.820312 173.527344 235.960938 174.265625 235.085938 174.988281 C 234.207031 175.707031 233.316406 176.402344 232.402344 177.078125 C 231.492188 177.753906 230.566406 178.410156 229.621094 179.039062 C 228.675781 179.667969 227.71875 180.277344 226.746094 180.859375 C 225.773438 181.441406 224.785156 182.003906 223.785156 182.539062 C 222.785156 183.070312 221.773438 183.582031 220.746094 184.066406 C 219.71875 184.550781 218.683594 185.011719 217.636719 185.445312 C 216.585938 185.878906 215.527344 186.289062 214.460938 186.671875 C 213.390625 187.054688 212.316406 187.410156 211.230469 187.738281 C 210.144531 188.066406 209.050781 188.371094 207.949219 188.644531 C 206.847656 188.921875 205.742188 189.171875 204.628906 189.390625 C 203.515625 189.613281 202.398438 189.808594 201.277344 189.972656 C 200.15625 190.140625 199.027344 190.277344 197.898438 190.390625 C 196.769531 190.5 195.640625 190.585938 194.503906 190.640625 C 193.371094 190.695312 192.238281 190.722656 191.105469 190.722656 C 189.96875 190.722656 188.835938 190.695312 187.703125 190.640625 C 186.570312 190.585938 185.4375 190.5 184.308594 190.390625 C 183.179688 190.277344 182.054688 190.140625 180.929688 189.972656 C 179.808594 189.808594 178.691406 189.613281 177.578125 189.390625 C 176.464844 189.171875 175.359375 188.921875 174.257812 188.644531 C 173.15625 188.371094 172.066406 188.066406 170.980469 187.738281 C 169.894531 187.410156 168.816406 187.054688 167.746094 186.671875 C 166.679688 186.289062 165.621094 185.878906 164.574219 185.445312 C 163.523438 185.011719 162.488281 184.550781 161.460938 184.066406 C 160.4375 183.582031 159.421875 183.070312 158.421875 182.539062 C 157.421875 182.003906 156.433594 181.441406 155.460938 180.859375 C 154.488281 180.277344 153.53125 179.667969 152.585938 179.039062 C 151.644531 178.410156 150.714844 177.753906 149.804688 177.078125 C 148.894531 176.402344 148 175.707031 147.121094 174.988281 C 146.246094 174.265625 145.386719 173.527344 144.546875 172.765625 C 143.703125 172 142.882812 171.21875 142.082031 170.417969 C 141.277344 169.613281 140.496094 168.792969 139.734375 167.953125 C 138.972656 167.113281 138.230469 166.253906 137.511719 165.375 C 136.792969 164.5 136.09375 163.605469 135.417969 162.695312 C 134.742188 161.78125 134.089844 160.855469 133.457031 159.910156 C 132.828125 158.96875 132.222656 158.007812 131.636719 157.035156 C 131.054688 156.0625 130.496094 155.078125 129.960938 154.074219 C 129.425781 153.074219 128.917969 152.0625 128.429688 151.035156 C 127.945312 150.011719 127.484375 148.972656 127.050781 147.925781 C 126.617188 146.878906 126.210938 145.820312 125.828125 144.75 C 125.445312 143.683594 125.089844 142.605469 124.761719 141.519531 C 124.429688 140.433594 124.128906 139.339844 123.851562 138.238281 C 123.578125 137.140625 123.328125 136.03125 123.105469 134.917969 C 122.886719 133.808594 122.691406 132.6875 122.523438 131.566406 C 122.359375 130.445312 122.21875 129.320312 122.109375 128.191406 C 121.996094 127.0625 121.914062 125.929688 121.859375 124.796875 C 121.800781 123.664062 121.773438 122.527344 121.773438 121.394531 C 121.773438 120.257812 121.800781 119.125 121.859375 117.992188 C 121.914062 116.859375 121.996094 115.726562 122.109375 114.597656 C 122.21875 113.46875 122.359375 112.34375 122.523438 111.222656 C 122.691406 110.097656 122.886719 108.980469 123.105469 107.867188 C 123.328125 106.757812 123.578125 105.648438 123.851562 104.546875 C 124.128906 103.449219 124.429688 102.355469 124.761719 101.269531 C 125.089844 100.183594 125.445312 99.105469 125.828125 98.039062 C 126.210938 96.96875 126.617188 95.910156 127.050781 94.863281 C 127.484375 93.816406 127.945312 92.777344 128.429688 91.753906 C 128.917969 90.726562 129.425781 89.714844 129.960938 88.710938 C 130.496094 87.710938 131.054688 86.726562 131.636719 85.753906 C 132.222656 84.777344 132.828125 83.820312 133.457031 82.878906 C 134.089844 81.933594 134.742188 81.007812 135.417969 80.09375 C 136.09375 79.183594 136.792969 78.289062 137.511719 77.414062 C 138.230469 76.535156 138.972656 75.675781 139.734375 74.835938 C 140.496094 73.996094 141.277344 73.171875 142.082031 72.371094 C 142.882812 71.570312 143.703125 70.785156 144.546875 70.023438 C 145.386719 69.261719 146.246094 68.523438 147.121094 67.800781 C 148 67.082031 148.894531 66.382812 149.804688 65.707031 C 150.714844 65.03125 151.644531 64.378906 152.585938 63.75 C 153.53125 63.117188 154.488281 62.511719 155.460938 61.929688 C 156.433594 61.34375 157.421875 60.785156 158.421875 60.25 C 159.421875 59.714844 160.4375 59.207031 161.460938 58.722656 C 162.488281 58.234375 163.523438 57.777344 164.574219 57.34375 C 165.621094 56.90625 166.679688 56.5 167.746094 56.117188 C 168.816406 55.734375 169.894531 55.378906 170.980469 55.050781 C 172.066406 54.722656 173.15625 54.417969 174.257812 54.140625 C 175.359375 53.867188 176.464844 53.617188 177.578125 53.398438 C 178.691406 53.175781 179.808594 52.980469 180.929688 52.816406 C 182.054688 52.648438 183.179688 52.507812 184.308594 52.398438 C 185.4375 52.289062 186.570312 52.203125 187.703125 52.148438 C 188.835938 52.09375 189.96875 52.0625 191.105469 52.0625 Z M 191.105469 52.0625 " fill-opacity="1" fill-rule="nonzero"/></g><g clip-path="url(#6227576f36)"><g clip-path="url(#8d4603c0fe)"><path fill="#43aabc" d="M 244.179688 274.53125 L 137.824219 274.53125 L 137.824219 195.839844 L 244.179688 195.839844 Z M 244.179688 274.53125 " fill-opacity="1" fill-rule="nonzero"/></g></g><g fill="#456998" fill-opacity="1"><g transform="translate(63.277738, 193.590676)"><g><path d="M 1.34375 -33.46875 L 15.390625 -33.46875 L 29.359375 -16.734375 L 29.359375 -33.46875 L 32.21875 -33.46875 L 32.21875 0 L 20.984375 0 L 4.25 -22.28125 L 4.25 0 L 1.34375 0 Z M 1.34375 -33.46875 "/></g></g></g><g fill="#456998" fill-opacity="1"><g transform="translate(96.833839, 193.590676)"><g><path d="M 1.34375 -33.46875 L 36.09375 -33.46875 L 36.09375 -30.640625 L 18.171875 -30.640625 L 18.171875 -18.265625 L 26.96875 -18.265625 L 26.96875 -15.390625 L 18.171875 -15.390625 L 18.171875 -2.875 L 36.09375 -2.875 L 36.09375 0 L 1.34375 0 Z M 1.34375 -33.46875 "/></g></g></g><g fill="#456998" fill-opacity="1"><g transform="translate(134.309598, 193.590676)"><g><path d="M 13.578125 -30.640625 L 1 -30.640625 L 1 -33.46875 L 42.9375 -33.46875 L 42.9375 -30.640625 L 30.3125 -30.640625 L 30.3125 0 L 13.578125 0 Z M 13.578125 -30.640625 "/></g></g></g><g fill="#456998" fill-opacity="1"><g transform="translate(178.238451, 193.590676)"><g><path d="M 0.53125 -33.46875 L 16.78125 -33.46875 L 27.96875 -8.171875 L 37.390625 -33.46875 L 44.5625 -33.46875 L 55.5625 -8.75 L 64.734375 -33.46875 L 68.421875 -33.46875 L 55.796875 0 L 41.3125 0 L 34.375 -15.6875 L 28.453125 0 L 15.34375 0 Z M 0.53125 -33.46875 "/></g></g></g><g fill="#456998" fill-opacity="1"><g transform="translate(247.167081, 193.590676)"><g><path d="M 1.34375 -33.46875 L 16.921875 -33.46875 L 16.921875 0 L 1.34375 0 Z M 1.34375 -33.46875 "/></g></g></g><g fill="#456998" fill-opacity="1"><g transform="translate(265.474754, 193.590676)"><g><path d="M 1.34375 -33.46875 L 18.125 -33.46875 L 18.125 0 L 1.34375 0 Z M 18.125 -16.78125 L 25.96875 -33.46875 L 42.65625 -33.46875 L 34.28125 -16.78125 L 44.890625 0 L 28.015625 0 Z M 18.125 -16.78125 "/></g></g></g></svg>